# xmcd CD database file
#
# Track frame offsets:
#	150
#	13650
#	32065
#	45255
#	66157
#
# Disc length: 1183 seconds
#
# Revision: 0
# Processed by: cddbd v1.5.1PL0 Copyright (c) Steve Scherf et al.
# Submitted via: CDex 1.51
#
DISCID=35049d05
DTITLE=Mia Znidaric - Kako lep je ta svet
DYEAR=1900
DGENRE=Jazz
TTITLE0=A si ti, al nisi ti
TTITLE1=Domotozno potovanje
TTITLE2=Ves je moj
TTITLE3=Najljubse reci
TTITLE4=Kako lep je ta svet
EXTD=
EXTT0=
EXTT1=
EXTT2=
EXTT3=
EXTT4=
PLAYORDER=
